<svg id="visual" viewBox="0 0 900 600" width="900" height="600" xmlns="http://www.w3.org/2000/svg" xmlns:xlink="http://www.w3.org/1999/xlink" version="1.1"><rect width="900" height="600" fill="#0E1014"></rect><g><g transform="translate(707 96)"><path d="M0 -71.4L50.5 -50.5L71.4 0L50.5 50.5L0 71.4L-50.5 50.5L-71.4 0L-50.5 -50.5Z" fill="#282828"></path></g><g transform="translate(445 593)"><path d="M0 -53L37.5 -37.5L53 0L37.5 37.5L0 53L-37.5 37.5L-53 0L-37.5 -37.5Z" fill="#282828"></path></g><g transform="translate(238 247)"><path d="M0 -70L49.5 -49.5L70 0L49.5 49.5L0 70L-49.5 49.5L-70 0L-49.5 -49.5Z" fill="#282828"></path></g><g transform="translate(830 185)"><path d="M0 -62L43.8 -43.8L62 0L43.8 43.8L0 62L-43.8 43.8L-62 0L-43.8 -43.8Z" fill="#282828"></path></g><g transform="translate(455 344)"><path d="M0 -62L43.8 -43.8L62 0L43.8 43.8L0 62L-43.8 43.8L-62 0L-43.8 -43.8Z" fill="#282828"></path></g><g transform="translate(338 103)"><path d="M0 -60L42.4 -42.4L60 0L42.4 42.4L0 60L-42.4 42.4L-60 0L-42.4 -42.4Z" fill="#282828"></path></g><g transform="translate(567 136)"><path d="M0 -59L41.7 -41.7L59 0L41.7 41.7L0 59L-41.7 41.7L-59 0L-41.7 -41.7Z" fill="#282828"></path></g><g transform="translate(158 80)"><path d="M0 -70L49.5 -49.5L70 0L49.5 49.5L0 70L-49.5 49.5L-70 0L-49.5 -49.5Z" fill="#282828"></path></g><g transform="translate(857 441)"><path d="M0 -62L43.8 -43.8L62 0L43.8 43.8L0 62L-43.8 43.8L-62 0L-43.8 -43.8Z" fill="#282828"></path></g><g transform="translate(256 396)"><path d="M0 -44L31.1 -31.1L44 0L31.1 31.1L0 44L-31.1 31.1L-44 0L-31.1 -31.1Z" fill="#282828"></path></g><g transform="translate(733 542)"><path d="M0 -68L48.1 -48.1L68 0L48.1 48.1L0 68L-48.1 48.1L-68 0L-48.1 -48.1Z" fill="#282828"></path></g><g transform="translate(5 286)"><path d="M0 -56L39.6 -39.6L56 0L39.6 39.6L0 56L-39.6 39.6L-56 0L-39.6 -39.6Z" fill="#282828"></path></g><g transform="translate(675 306)"><path d="M0 -54L38.2 -38.2L54 0L38.2 38.2L0 54L-38.2 38.2L-54 0L-38.2 -38.2Z" fill="#282828"></path></g><g transform="translate(129 475)"><path d="M0 -53L37.5 -37.5L53 0L37.5 37.5L0 53L-37.5 37.5L-53 0L-37.5 -37.5Z" fill="#282828"></path></g><g transform="translate(898 37)"><path d="M0 -46L32.5 -32.5L46 0L32.5 32.5L0 46L-32.5 32.5L-46 0L-32.5 -32.5Z" fill="#282828"></path></g><g transform="translate(256 567)"><path d="M0 -52L36.8 -36.8L52 0L36.8 36.8L0 52L-36.8 36.8L-52 0L-36.8 -36.8Z" fill="#282828"></path></g><g transform="translate(9 594)"><path d="M0 -60L42.4 -42.4L60 0L42.4 42.4L0 60L-42.4 42.4L-60 0L-42.4 -42.4Z" fill="#282828"></path></g><g transform="translate(563 500)"><path d="M0 -47L33.2 -33.2L47 0L33.2 33.2L0 47L-33.2 33.2L-47 0L-33.2 -33.2Z" fill="#282828"></path></g><g transform="translate(15 36)"><path d="M0 -49L34.6 -34.6L49 0L34.6 34.6L0 49L-34.6 34.6L-49 0L-34.6 -34.6Z" fill="#282828"></path></g></g></svg>